<svg width="56" height="56" viewBox="0 0 56 56" fill="none" xmlns="http://www.w3.org/2000/svg">
<circle cx="28" cy="28" r="28" fill="#FFA500"/>
<path d="M20.2578 31.3453V34.2126C20.2578 36.916 20.2578 38.2676 21.0976 39.1074C21.9374 39.9473 23.2891 39.9473 25.9924 39.9473H29.8155C32.5188 39.9473 33.8705 39.9473 34.7103 39.1074C35.5501 38.2676 35.5501 36.916 35.5501 34.2126V31.3453" stroke="white" stroke-width="1.875" stroke-linecap="round"/>
<path d="M20.2574 31.266C17.5452 30.811 15.4785 28.4522 15.4785 25.6107C15.4785 22.4436 18.046 19.8761 21.2131 19.8761C21.6067 19.8761 21.9909 19.9157 22.3622 19.9912" stroke="white" stroke-width="1.875" stroke-linecap="round"/>
<path d="M35.7435 31.266C38.4557 30.811 40.5223 28.4522 40.5223 25.6107C40.5223 22.4436 37.9548 19.8761 34.7877 19.8761C34.3942 19.8761 34.0099 19.9157 33.6387 19.9912" stroke="white" stroke-width="1.875" stroke-linecap="round"/>
<path d="M22.3501 23.2212C22.2322 22.763 22.1694 22.2826 22.1694 21.7876C22.1694 18.6205 24.7369 16.053 27.904 16.053C31.0712 16.053 33.6387 18.6205 33.6387 21.7876C33.6387 22.2826 33.5759 22.763 33.458 23.2212" stroke="white" stroke-width="1.875" stroke-linecap="round"/>
<path d="M20.2578 35.6464H35.5501" stroke="white" stroke-width="1.875"/>
<path d="M27.8662 26.4161V29.4194" stroke="white" stroke-width="1.875" stroke-linecap="round"/>
<path d="M22.5551 26.668C22.315 27.2042 22.7552 29.2487 23.2753 29.5838" stroke="white" stroke-width="1.875" stroke-linecap="round"/>
<path d="M33.5714 26.668C33.8114 27.2042 33.3713 29.2487 32.8511 29.5838" stroke="white" stroke-width="1.875" stroke-linecap="round"/>
</svg>
